<svg version="1.1" id="Layer_1" xmlns="http://www.w3.org/2000/svg" xmlns:xlink="http://www.w3.org/1999/xlink" x="0px" y="0px"
	 width="100%" viewBox="0 0 420 594" enable-background="new 0 0 420 594" xml:space="preserve">
<path fill="#000000" opacity="1.000000" stroke="none" 
	d="
M417.260132,595.000000 
	C278.234711,595.000000 139.738754,595.000000 1.121396,595.000000 
	C1.121396,397.086761 1.121396,199.173431 1.121396,1.130053 
	C140.909119,1.130053 280.818390,1.130053 420.863831,1.130053 
	C420.863831,198.903366 420.863831,396.806854 420.863831,595.000000 
	C419.934540,595.000000 418.862030,595.000000 417.260132,595.000000 
M125.485809,337.054688 
	C125.709503,336.909821 125.933205,336.764954 126.156891,336.620056 
	C125.735985,336.727905 125.315079,336.835724 124.693794,337.078064 
	C124.693794,337.078064 124.738892,337.435364 124.738892,337.435364 
	C124.738892,337.435364 125.056877,337.106628 125.485809,337.054688 
M270.960297,478.569000 
	C270.842194,478.552368 270.724091,478.535706 270.605988,478.519073 
	C270.679474,478.727142 270.752960,478.935211 271.030243,479.772705 
	C271.764465,480.112885 272.498657,480.453064 273.232849,480.793243 
	C273.386749,480.418610 273.540619,480.043976 273.694519,479.669312 
	C272.847290,479.384277 272.000061,479.099274 270.960297,478.569000 
M279.136353,483.357361 
	C278.944275,483.148224 278.752197,482.939056 278.560120,482.729889 
	C278.649078,483.197327 278.738068,483.664734 279.204773,484.655487 
	C280.272797,485.252930 281.340851,485.850342 282.408875,486.447754 
	C282.598450,485.940002 282.787994,485.432251 282.977570,484.924469 
	C281.742615,484.546143 280.507690,484.167847 279.136353,483.357361 
M277.778503,473.989288 
	C279.334839,474.133087 280.891144,474.276917 282.447479,474.420715 
	C282.863312,474.047791 283.279144,473.674866 283.695007,473.301910 
	C282.507263,471.649841 281.319550,469.997803 280.131836,468.345734 
	C279.098572,469.742432 278.021027,471.109863 277.064453,472.557251 
	C276.836761,472.901825 277.013855,473.513885 276.691071,474.238434 
	C276.628845,474.477875 276.566589,474.717346 276.504333,474.956787 
	C276.667847,474.636078 276.831360,474.315369 277.778503,473.989288 
M109.621468,385.002136 
	C113.073586,383.849731 116.852982,382.244324 114.533409,377.917084 
	C112.946915,374.957428 109.923851,371.948303 106.865982,370.855042 
	C104.401711,369.974030 100.591698,371.330658 97.981934,372.780365 
	C94.915894,374.483612 94.551018,383.459106 96.870094,386.032532 
	C99.875084,389.367035 105.353142,389.138428 109.621468,385.002136 
M112.116394,463.525543 
	C109.860847,466.112854 104.354561,467.211426 108.021683,472.968414 
	C111.131874,470.645966 113.814072,468.035034 117.001152,466.421082 
	C120.767792,464.513550 119.656998,462.673401 117.884163,459.992889 
	C116.029327,461.125916 114.382973,462.131592 112.116394,463.525543 
M149.260223,483.974579 
	C146.488831,480.773499 143.435562,481.560852 141.260391,484.234161 
	C140.245773,485.481079 140.706345,488.102203 140.923996,490.052917 
	C140.976990,490.527954 143.256592,491.398865 143.580124,491.095032 
	C145.714401,489.090698 147.593964,486.815155 149.260223,483.974579 
M126.096085,475.741150 
	C128.343597,474.508301 130.059418,472.963135 127.719429,470.508759 
	C127.237480,470.003235 124.808037,470.293335 124.622772,470.755981 
	C123.945801,472.446472 121.176994,474.829681 126.096085,475.741150 
M120.590538,471.601685 
	C119.279007,470.882263 117.967476,470.162842 116.655937,469.443451 
	C116.312729,469.970062 115.969521,470.496674 115.626305,471.023254 
	C116.556862,472.165588 117.487411,473.307922 118.417984,474.450256 
	C119.078392,473.701935 119.738800,472.953613 120.590538,471.601685 
M126.862450,329.107513 
	C125.541977,327.673004 124.221497,326.238495 122.901024,324.803986 
	C122.456932,325.290588 122.012848,325.777191 121.568756,326.263794 
	C123.331085,327.417267 125.093407,328.570740 126.862450,329.107513 
M279.890747,476.424530 
	C280.283142,477.615112 280.675537,478.805664 281.067932,479.996246 
	C281.679321,479.625336 282.290710,479.254425 282.902100,478.883514 
	C282.113281,478.043640 281.324432,477.203735 279.890747,476.424530 
M161.114456,499.763214 
	C161.665482,499.763214 162.216492,499.763214 162.767517,499.763214 
	C162.734055,499.528107 162.700607,499.292969 162.667145,499.057861 
	C162.132339,499.140106 161.597519,499.222382 161.114456,499.763214 
M290.300659,485.662567 
	C289.364594,485.888885 288.428528,486.115234 287.492462,486.341553 
	C287.617340,486.673859 287.742188,487.006134 287.867065,487.338440 
	C288.637726,486.946442 289.408356,486.554413 290.300659,485.662567 
M131.565369,319.959564 
	C131.283386,320.303345 130.983276,320.635712 130.748383,321.009125 
	C130.725754,321.045135 131.107986,321.335846 131.302261,321.508301 
	C131.480301,321.104950 131.658340,320.701630 131.565369,319.959564 
M120.151451,345.477112 
	C120.092796,345.167358 120.034142,344.857635 119.975479,344.547882 
	C119.904961,344.855255 119.834450,345.162598 120.151451,345.477112 
M134.811691,337.460846 
	C135.186935,337.592834 135.557556,337.743500 135.941940,337.838470 
	C136.005753,337.854218 136.129593,337.626984 136.225693,337.512024 
	C135.852966,337.382324 135.480225,337.252594 134.811691,337.460846 
M293.723389,478.186310 
	C293.615082,478.042419 293.506744,477.898560 293.398438,477.754669 
	C293.420685,477.952301 293.442902,478.149902 293.723389,478.186310 
M275.778809,479.830780 
	C275.605927,479.885986 275.433075,479.941193 275.260193,479.996429 
	C275.435913,480.051147 275.611664,480.105896 275.778809,479.830780 
M137.589951,335.506042 
	C137.818283,335.564789 138.046616,335.623535 138.274948,335.682281 
	C138.125931,335.531189 137.976898,335.380066 137.589951,335.506042 
M285.486053,468.280212 
	C285.422058,468.223206 285.358093,468.166229 285.486053,468.280212 
M121.855644,462.688080 
	C121.930328,462.555206 122.005013,462.422333 122.079697,462.289459 
	C121.961906,462.346802 121.844124,462.404144 121.855644,462.688080 
M132.649307,335.521484 
	C132.649307,335.521484 132.445053,335.411224 132.445053,335.411224 
	C132.445053,335.411224 132.479095,335.639282 132.649307,335.521484 
M129.498734,332.357208 
	C129.498734,332.357208 129.384064,332.552368 129.384064,332.552368 
	C129.384064,332.552368 129.616974,332.525909 129.498734,332.357208 
M133.485092,330.577240 
	C133.485092,330.577240 133.430557,330.480438 133.485092,330.577240 
M131.451813,328.491425 
	C131.451813,328.491425 131.514999,328.461609 131.451813,328.491425 
z"/>
<path fill="#020202" opacity="1.000000" stroke="none" 
	d="
M109.343643,385.262848 
	C105.353142,389.138428 99.875084,389.367035 96.870094,386.032532 
	C94.551018,383.459106 94.915894,374.483612 97.981934,372.780365 
	C100.591698,371.330658 104.401711,369.974030 106.865982,370.855042 
	C109.923851,371.948303 112.946915,374.957428 114.533409,377.917084 
	C116.852982,382.244324 113.073586,383.849731 109.343643,385.262848 
M109.337494,382.776672 
	C109.369041,381.108978 109.967117,378.298828 109.328690,377.982208 
	C107.188278,376.920807 104.602112,376.410339 102.196228,376.441101 
	C101.460091,376.450500 99.848930,379.302063 100.226311,380.114166 
	C100.985550,381.747864 102.638565,383.335358 104.305214,384.050049 
	C105.439377,384.536407 107.223198,383.507751 109.337494,382.776672 
z"/>
<path fill="#040404" opacity="1.000000" stroke="none" 
	d="
M112.426506,463.331421 
	C114.382973,462.131592 116.029327,461.125916 117.884163,459.992889 
	C119.656998,462.673401 120.767792,464.513550 117.001152,466.421082 
	C113.814072,468.035034 111.131874,470.645966 108.021683,472.968414 
	C104.354561,467.211426 109.860847,466.112854 112.426506,463.331421 
z"/>
<path fill="#000000" opacity="1.000000" stroke="none" 
	d="
M149.408371,484.301300 
	C147.593964,486.815155 145.714401,489.090698 143.580124,491.095032 
	C143.256592,491.398865 140.976990,490.527954 140.923996,490.052917 
	C140.706345,488.102203 140.245773,485.481079 141.260391,484.234161 
	C143.435562,481.560852 146.488831,480.773499 149.408371,484.301300 
z"/>
<path fill="#101010" opacity="1.000000" stroke="none" 
	d="
M277.004730,474.002899 
	C277.013855,473.513885 276.836761,472.901825 277.064453,472.557251 
	C278.021027,471.109863 279.098572,469.742432 280.131836,468.345734 
	C281.319550,469.997803 282.507263,471.649841 283.695007,473.301910 
	C283.279144,473.674866 282.863312,474.047791 282.447479,474.420715 
	C280.891144,474.276917 279.334839,474.133087 277.389252,473.994629 
	C277.000000,474.000000 277.004730,474.002899 277.004730,474.002899 
z"/>
<path fill="#040404" opacity="1.000000" stroke="none" 
	d="
M125.740807,475.806091 
	C121.176994,474.829681 123.945801,472.446472 124.622772,470.755981 
	C124.808037,470.293335 127.237480,470.003235 127.719429,470.508759 
	C130.059418,472.963135 128.343597,474.508301 125.740807,475.806091 
z"/>
<path fill="#040404" opacity="1.000000" stroke="none" 
	d="
M120.494873,471.903503 
	C119.738800,472.953613 119.078392,473.701935 118.417976,474.450256 
	C117.487411,473.307922 116.556862,472.165588 115.626305,471.023254 
	C115.969521,470.496674 116.312729,469.970062 116.655937,469.443451 
	C117.967476,470.162842 119.279007,470.882263 120.494873,471.903503 
z"/>
<path fill="#101010" opacity="1.000000" stroke="none" 
	d="
M126.859093,329.415863 
	C125.093407,328.570740 123.331085,327.417267 121.568756,326.263794 
	C122.012848,325.777191 122.456932,325.290588 122.901024,324.803986 
	C124.221497,326.238495 125.541977,327.673004 126.859093,329.415863 
z"/>
<path fill="#101010" opacity="1.000000" stroke="none" 
	d="
M280.213196,476.394196 
	C281.324432,477.203735 282.113281,478.043640 282.902100,478.883514 
	C282.290710,479.254425 281.679321,479.625336 281.067932,479.996246 
	C280.675537,478.805664 280.283142,477.615112 280.213196,476.394196 
z"/>
<path fill="#101010" opacity="1.000000" stroke="none" 
	d="
M279.272736,483.789520 
	C280.507690,484.167847 281.742615,484.546143 282.977570,484.924469 
	C282.787994,485.432251 282.598450,485.940002 282.408875,486.447754 
	C281.340851,485.850342 280.272797,485.252930 279.126343,484.306885 
	C279.047943,483.958313 279.272736,483.789520 279.272736,483.789520 
z"/>
<path fill="#CFCFCF" opacity="1.000000" stroke="none" 
	d="
M161.088593,499.533936 
	C161.597519,499.222382 162.132339,499.140106 162.667145,499.057861 
	C162.700607,499.292969 162.734055,499.528107 162.767517,499.763214 
	C162.216492,499.763214 161.665482,499.763214 161.088593,499.533936 
z"/>
<path fill="#101010" opacity="1.000000" stroke="none" 
	d="
M290.239807,485.912476 
	C289.408356,486.554413 288.637726,486.946442 287.867065,487.338440 
	C287.742188,487.006134 287.617340,486.673859 287.492462,486.341553 
	C288.428528,486.115234 289.364594,485.888885 290.239807,485.912476 
z"/>
<path fill="#101010" opacity="1.000000" stroke="none" 
	d="
M271.152832,478.814240 
	C272.000061,479.099274 272.847290,479.384277 273.694519,479.669312 
	C273.540619,480.043976 273.386749,480.418610 273.232849,480.793243 
	C272.498657,480.453064 271.764465,480.112885 271.012207,479.377991 
	C270.994202,478.983307 271.152832,478.814240 271.152832,478.814240 
z"/>
<path fill="#101010" opacity="1.000000" stroke="none" 
	d="
M131.700882,320.128906 
	C131.658340,320.701630 131.480301,321.104950 131.302261,321.508301 
	C131.107986,321.335846 130.725754,321.045135 130.748383,321.009125 
	C130.983276,320.635712 131.283386,320.303345 131.700882,320.128906 
z"/>
<path fill="#050505" opacity="1.000000" stroke="none" 
	d="
M119.957687,345.473541 
	C119.834450,345.162598 119.904961,344.855255 119.975479,344.547882 
	C120.034142,344.857635 120.092796,345.167358 119.957687,345.473541 
z"/>
<path fill="#101010" opacity="1.000000" stroke="none" 
	d="
M134.959595,337.291870 
	C135.480225,337.252594 135.852966,337.382324 136.225693,337.512024 
	C136.129593,337.626984 136.005753,337.854218 135.941940,337.838470 
	C135.557556,337.743500 135.186935,337.592834 134.959595,337.291870 
z"/>
<path fill="#101010" opacity="1.000000" stroke="none" 
	d="
M293.594238,478.266907 
	C293.442902,478.149902 293.420685,477.952301 293.398438,477.754669 
	C293.506744,477.898560 293.615082,478.042419 293.594238,478.266907 
z"/>
<path fill="#101010" opacity="1.000000" stroke="none" 
	d="
M278.937500,484.045227 
	C278.738068,483.664734 278.649078,483.197327 278.560120,482.729889 
	C278.752197,482.939056 278.944275,483.148224 279.204529,483.573425 
	C279.272736,483.789520 279.047943,483.958313 278.937500,484.045227 
z"/>
<path fill="#101010" opacity="1.000000" stroke="none" 
	d="
M275.783112,479.995728 
	C275.611664,480.105896 275.435913,480.051147 275.260193,479.996399 
	C275.433075,479.941193 275.605927,479.885986 275.783112,479.995728 
z"/>
<path fill="#101010" opacity="1.000000" stroke="none" 
	d="
M137.708908,335.367493 
	C137.976898,335.380066 138.125931,335.531189 138.274948,335.682251 
	C138.046616,335.623535 137.818283,335.564789 137.708908,335.367493 
z"/>
<path fill="#101010" opacity="1.000000" stroke="none" 
	d="
M276.997437,473.997314 
	C276.831360,474.315369 276.667847,474.636078 276.504333,474.956787 
	C276.566589,474.717346 276.628845,474.477875 276.847900,474.120667 
	C277.004730,474.002899 277.000000,474.000000 276.997437,473.997314 
z"/>
<path fill="#050505" opacity="1.000000" stroke="none" 
	d="
M124.894180,336.943542 
	C125.315079,336.835724 125.735985,336.727905 126.156891,336.620056 
	C125.933205,336.764954 125.709503,336.909821 125.234756,337.035828 
	C124.983696,337.016937 124.894180,336.943542 124.894180,336.943542 
z"/>
<path fill="#101010" opacity="1.000000" stroke="none" 
	d="
M285.390076,468.194702 
	C285.358093,468.166229 285.422058,468.223206 285.390076,468.194702 
z"/>
<path fill="#040404" opacity="1.000000" stroke="none" 
	d="
M121.790985,462.574768 
	C121.844124,462.404144 121.961906,462.346802 122.079697,462.289429 
	C122.005013,462.422333 121.930328,462.555206 121.790985,462.574768 
z"/>
<path fill="#101010" opacity="1.000000" stroke="none" 
	d="
M270.910339,479.063293 
	C270.752960,478.935211 270.679474,478.727142 270.605988,478.519073 
	C270.724091,478.535706 270.842194,478.552368 271.056580,478.691620 
	C271.152832,478.814240 270.994202,478.983307 270.910339,479.063293 
z"/>
<path fill="#101010" opacity="1.000000" stroke="none" 
	d="
M132.564209,335.580383 
	C132.479095,335.639282 132.445053,335.411224 132.445053,335.411224 
	C132.445053,335.411224 132.649307,335.521484 132.564209,335.580383 
z"/>
<path fill="#050505" opacity="1.000000" stroke="none" 
	d="
M125.020287,337.061768 
	C125.056877,337.106628 124.738892,337.435364 124.738892,337.435364 
	C124.738892,337.435364 124.693794,337.078064 124.793991,337.010803 
	C124.894180,336.943542 124.983696,337.016937 125.020287,337.061768 
z"/>
<path fill="#101010" opacity="1.000000" stroke="none" 
	d="
M129.557861,332.441559 
	C129.616974,332.525909 129.384064,332.552368 129.384064,332.552368 
	C129.384064,332.552368 129.498734,332.357208 129.557861,332.441559 
z"/>
<path fill="#101010" opacity="1.000000" stroke="none" 
	d="
M133.457825,330.528839 
	C133.430557,330.480438 133.485092,330.577240 133.457825,330.528839 
z"/>
<path fill="#101010" opacity="1.000000" stroke="none" 
	d="
M131.483398,328.476501 
	C131.514999,328.461609 131.451813,328.491425 131.483398,328.476501 
z"/>
<path fill="#000000" opacity="1.000000" stroke="none" 
	d="
M109.027008,382.966614 
	C107.223198,383.507751 105.439377,384.536407 104.305214,384.050049 
	C102.638565,383.335358 100.985550,381.747864 100.226311,380.114166 
	C99.848930,379.302063 101.460091,376.450500 102.196228,376.441101 
	C104.602112,376.410339 107.188278,376.920807 109.328690,377.982208 
	C109.967117,378.298828 109.369041,381.108978 109.027008,382.966614 
z"/>
</svg>